HIERARCHY
ROOT Hips
{
	OFFSET 0.000000 0.000000 0.000000
	CHANNELS 6 Xposition Yposition Zposition Zrotation Yrotation Xrotation 
	JOINT LHipJoint
	{
		OFFSET 0.000000 0.000000 0.000000
		CHANNELS 3 Zrotation Yrotation Xrotation
		JOINT LeftUpLeg
		{
			OFFSET 1.363060 -1.794630 0.839290
			CHANNELS 3 Zrotation Yrotation Xrotation
			JOINT LeftLeg
			{
				OFFSET 2.448110 -6.726130 0.000000
				CHANNELS 3 Zrotation Yrotation Xrotation
				JOINT LeftFoot
				{
					OFFSET 2.562200 -7.039590 0.000000
					CHANNELS 3 Zrotation Yrotation Xrotation
					JOINT LeftToeBase
					{
						OFFSET 0.157640 -0.433110 2.322550
						CHANNELS 3 Zrotation Yrotation Xrotation
						End Site
						{
							OFFSET 0.000000 0.000000 0.000000
						}
					}
				}
			}
		}
	}
	JOINT RHipJoint
	{
		OFFSET 0.000000 0.000000 0.000000
		CHANNELS 3 Zrotation Yrotation Xrotation
		JOINT RightUpLeg
		{
			OFFSET -1.305520 -1.794630 0.839290
			CHANNELS 3 Zrotation Yrotation Xrotation
			JOINT RightLeg
			{
				OFFSET -2.542530 -6.985550 0.000000
				CHANNELS 3 Zrotation Yrotation Xrotation
				JOINT RightFoot
				{
					OFFSET -2.568260 -7.056230 0.000000
					CHANNELS 3 Zrotation Yrotation Xrotation
					JOINT RightToeBase
					{
						OFFSET -0.164730 -0.452590 2.363150
						CHANNELS 3 Zrotation Yrotation Xrotation
						End Site
						{
							OFFSET 0.000000 0.000000 0.000000
						}
					}
				}
			}
		}
	}
}
MOTION
Frames: 28
Frame Time: 0.008333
-20.281957 15.299614 -2.641926 168.900334 87.260538 -161.356353 -12.239433 3.633832 -1.202631 -0.671801 9.251342 4.898055 -1.916095 -0.602795 3.265589 0.548770 3.558818 -3.932055 0.144500 0.000000 -77.705600 8.134165 2.227714 4.276822 1.318166 5.657728 -78.515600 1.025078 -4.189191 47.947637 -0.978756 -1.985170 -6.571650 -0.496899 0.000000 -48.458800
-20.016234 15.302573 -2.618820 174.940331 87.605305 -154.997538 -12.578012 3.883619 -1.078095 -0.036303 9.277283 4.378817 -1.771738 -0.335294 4.450734 0.582590 4.093841 -1.559967 0.352001 0.000000 -81.002800 7.933611 2.330233 4.195055 1.685189 6.320297 -78.461041 0.796354 -4.189417 49.576685 -1.169138 -2.875124 -6.594306 -0.578000 -0.000000 -46.657000
-19.747592 15.312338 -2.593506 -179.707321 87.890099 -149.342458 -12.959892 4.101954 -0.955774 0.554637 9.312749 3.710259 -1.605538 -0.070126 5.867160 0.640993 4.652533 1.031118 0.596500 -0.000000 -83.835100 7.690019 2.374688 4.119636 2.090985 6.910438 -78.307053 0.601599 -4.166968 51.011750 -1.357554 -3.727642 -6.756875 -0.641899 0.000000 -44.974600
-19.477099 15.328864 -2.565513 -175.105446 88.112648 -144.459251 -13.350745 4.278258 -0.834106 1.094080 9.340251 2.888797 -1.417967 0.184651 7.535424 0.727125 5.221464 3.794991 0.876700 -0.000001 -85.941400 7.431850 2.360781 4.051548 2.539466 7.418329 -78.037814 0.447348 -4.130919 52.230593 -1.534823 -4.494928 -7.068744 -0.677500 -0.000000 -43.521000
-19.205421 15.351959 -2.533905 -171.457204 88.280166 -140.555036 -13.705605 4.407901 -0.709870 1.545794 9.317095 1.926259 -1.213214 0.420618 9.460393 0.844731 5.812113 6.659102 1.193300 -0.000000 -87.040399 7.195676 2.301911 3.990040 3.012818 7.829661 -77.643685 0.335303 -4.089905 53.228617 -1.691573 -5.130435 -7.532445 -0.675401 -0.000000 -42.371900
-18.933806 15.381616 -2.498522 -168.649761 88.420158 -137.517887 -14.008372 4.490213 -0.581295 1.890623 9.223107 0.825241 -0.999777 0.632038 11.650469 0.993048 6.420723 9.516745 1.542000 0.000000 -86.887200 6.995443 2.212949 3.930776 3.507052 8.150402 -77.110790 0.265696 -4.044859 54.000346 -1.821179 -5.605010 -8.137899 -0.631700 -0.000000 -41.565600
-18.662994 15.417764 -2.459382 -166.577977 88.556347 -135.244638 -14.249250 4.525444 -0.448954 2.109039 9.046099 -0.409721 -0.790098 0.814783 14.111526 1.166039 7.040486 12.236716 1.914600 0.000000 -85.314400 6.838823 2.105922 3.870717 4.011796 8.385460 -76.430161 0.236535 -3.995422 54.547543 -1.919479 -5.902794 -8.866353 -0.548400 0.000000 -41.104601
-18.394170 15.460307 -2.416644 -165.142560 88.707749 -133.637771 -14.423381 4.515726 -0.317632 2.186907 8.790173 -1.776290 -0.598910 0.968992 16.844120 1.352217 7.659592 14.677980 2.297500 0.000001 -82.298800 6.729131 1.989830 3.808327 4.513243 8.539401 -75.599351 0.244343 -3.940641 54.876276 -1.985299 -6.023226 -9.690962 -0.432600 -0.000001 -40.962800
-18.127871 15.509116 -2.370675 -164.232919 88.888322 -132.589920 -14.531138 4.466489 -0.196117 2.120102 8.478645 -3.272150 -0.439098 1.100703 19.838603 1.536897 8.262985 16.712944 2.672600 0.000000 -77.993000 6.665712 1.869935 3.743745 4.998424 8.619110 -74.619335 0.284606 -3.879092 54.995105 -2.020406 -5.980427 -10.579487 -0.295200 0.000000 -41.091500
-17.864829 15.564110 -2.322317 -163.648672 89.105093 -131.898903 -14.585498 4.383273 -0.093611 1.921456 8.146573 -4.902297 -0.315974 1.220408 23.067339 1.706963 8.841050 18.256284 3.021900 0.000000 -72.811400 6.637720 1.744450 3.678907 5.463870 8.639524 -73.497257 0.353022 -3.808050 54.907093 -2.030050 -5.804775 -11.494548 -0.149500 -0.000000 -41.429700
-17.605692 15.625134 -2.272307 -163.247822 89.362308 -131.424114 -14.595935 4.273615 -0.018998 1.600183 7.824596 -6.658503 -0.226939 1.339861 26.480106 1.854228 9.400202 19.275308 3.336100 0.000000 -67.252900 6.637716 1.612352 3.615494 5.901253 8.611924 -72.240905 0.444435 -3.725947 54.619263 -2.020294 -5.530576 -12.402129 -0.006900 0.000000 -41.906900
-17.350800 15.692078 -2.221497 -162.840516 89.661475 -130.973093 -14.577788 4.141851 0.022955 1.170859 7.534228 -8.529492 -0.161580 1.467677 30.007780 1.977580 9.962711 19.797313 3.617900 0.000001 -61.936800 6.653399 1.469731 3.555131 6.306430 8.550983 -70.861198 0.554167 -3.630772 54.133560 -1.998116 -5.196137 -13.270284 0.123800 -0.000000 -42.453800
-17.099851 15.764814 -2.170679 17.803313 89.996028 49.684078 -14.547952 3.989340 0.029149 0.649044 7.295712 -10.497417 -0.107883 1.608188 33.581039 2.078450 10.541178 19.858121 3.866100 0.000000 -57.125700 6.671101 1.311330 3.498244 6.676288 8.469036 -69.364395 0.677962 -3.520761 53.451220 -1.969717 -4.835887 -14.073991 0.237600 0.000000 -43.003400
-16.852896 15.843282 -2.120612 18.991150 89.613073 50.859877 -14.526002 3.811680 0.002029 0.051346 7.114865 -12.545259 -0.053223 1.759177 37.121856 2.162680 11.158102 19.522801 4.087700 -0.000000 -53.121200 6.673733 1.128748 3.445991 7.009021 8.377261 -67.759863 0.812874 -3.394314 52.566671 -1.940497 -4.479432 -14.793110 0.332199 0.000000 -43.501400
-16.609255 15.927263 -2.071873 21.165890 89.199193 53.001515 -14.531774 3.598706 -0.053173 -0.605868 6.990061 -14.654557 0.012661 1.912776 40.555944 2.236178 11.825863 18.850938 4.284400 0.000000 -50.017600 6.642331 0.908638 3.400409 7.302462 8.281179 -66.056500 0.957401 -3.251312 51.471296 -1.914195 -4.147700 -15.413424 0.407800 0.000000 -43.906700
-16.368147 16.016444 -2.024840 25.022958 88.779896 56.807519 -14.581975 3.331256 -0.129608 -1.304154 6.910584 -16.805918 0.098786 2.054715 43.819873 2.302713 12.540516 17.877468 4.447600 0.000000 -47.622800 6.558101 0.627778 3.365995 7.554163 8.176871 -64.262909 1.112471 -3.095465 50.152494 -1.893068 -3.853468 -15.927049 0.465800 0.000000 -44.194000
-16.128663 16.110413 -1.979632 31.652007 88.413983 63.370411 -14.674668 2.975857 -0.216881 -2.022156 6.839065 -18.971423 0.217620 2.157773 46.845965 2.368448 13.309094 16.683638 4.581600 -0.000000 -46.152700 6.415012 0.250334 3.352545 7.761565 8.045726 -62.389727 1.283243 -2.938824 48.588741 -1.878327 -3.604964 -16.329847 0.507301 0.000000 -44.360600
-15.889935 16.208389 -1.936173 42.739178 88.220223 74.377542 -14.748318 2.491362 -0.311928 -2.711762 6.735238 -21.124291 0.382221 2.185012 49.606101 2.432322 14.099267 15.273624 4.664200 0.000000 -45.143100 6.255938 -0.261313 3.380143 7.941491 7.863909 -60.446387 1.481401 -2.806784 46.748399 -1.871181 -3.413862 -16.624098 0.533200 -0.000000 -44.416300
-15.650769 16.309659 -1.894104 59.801758 88.351599 91.356835 -14.620833 1.892438 -0.421193 -3.285773 6.571643 -23.246636 0.586206 2.115457 52.067598 2.496723 14.892258 13.705389 4.690900 -0.000000 -44.584900 6.236099 -0.859628 3.470497 8.160131 7.655971 -58.419266 1.718808 -2.718621 44.583754 -1.870665 -3.296788 -16.803190 0.543700 0.000000 -44.397300
-15.410585 16.413053 -1.852921 81.202528 88.872373 112.702512 -14.114815 1.356292 -0.559207 -3.680648 6.423089 -25.375128 0.760343 2.025755 54.179644 2.564790 15.661996 12.016759 4.651600 -0.000000 -44.305200 6.534569 -1.310944 3.601668 8.510199 7.564699 -56.254696 1.978819 -2.623912 42.086764 -1.866849 -3.241168 -16.834908 0.538500 -0.000000 -44.343100
-15.168684 16.517374 -1.811908 101.070666 89.686419 132.565883 -13.393870 1.071516 -0.708216 -3.989057 6.390341 -27.550274 0.825854 2.043577 55.862703 2.639713 16.386682 10.246326 4.537700 -0.000000 -44.019400 7.043042 -1.430498 3.701817 8.956983 7.698811 -53.904175 2.212484 -2.417312 39.326806 -1.845247 -3.189220 -16.675577 0.517500 -0.000000 -44.304600
-14.924659 16.621153 -1.770274 -64.062744 89.380088 -32.532034 -12.757288 0.989900 -0.828172 -4.352255 6.428571 -29.745922 0.794930 2.175185 57.092899 2.720253 17.046816 8.449526 4.352900 -0.000000 -43.617300 7.500592 -1.329578 3.742723 9.357222 7.960359 -51.397867 2.397164 -2.079335 36.380699 -1.802225 -3.104872 -16.325149 0.481100 -0.000000 -44.317800
-14.678376 16.722881 -1.727271 -53.257845 88.468832 -21.678432 -12.287496 0.988449 -0.900117 -4.809092 6.436973 -31.912572 0.715180 2.354340 57.907328 2.801464 17.614398 6.665084 4.103400 0.000000 -42.895000 7.819744 -1.168647 3.744148 9.632623 8.216876 -48.782748 2.541360 -1.658608 33.279611 -1.742626 -3.001136 -15.806117 0.430400 0.000000 -44.408699
-14.429889 16.820915 -1.682190 -44.563944 87.627538 -12.937502 -11.943893 1.014663 -0.922298 -5.352432 6.356647 -34.025171 0.610463 2.540987 58.350708 2.880338 18.073297 4.933928 3.804800 0.000000 -41.777900 8.029483 -1.005611 3.720250 9.766230 8.404231 -46.095399 2.652993 -1.195420 30.061001 -1.670162 -2.896787 -15.140668 0.367101 -0.000000 -44.582700
-14.179483 16.913648 -1.634507 -36.483890 86.849060 -4.821156 -11.694648 1.060062 -0.894679 -5.982770 6.163902 -36.073971 0.486927 2.723396 58.461222 2.955610 18.419760 3.292180 3.476700 -0.000000 -40.277000 8.157289 -0.849102 3.671575 9.750704 8.493369 -43.368501 2.734170 -0.712983 26.787941 -1.586703 -2.800246 -14.353298 0.293800 0.000000 -44.826700
-13.927575 16.999600 -1.583998 -28.102476 86.126636 3.578058 -11.542930 1.112582 -0.816716 -6.710564 5.843486 -38.051809 0.348801 2.894566 58.273263 3.026807 18.658752 1.767702 3.138800 -0.000000 -38.493100 8.198040 -0.711400 3.593328 9.575173 8.459020 -40.641237 2.787937 -0.230820 23.539713 -1.494235 -2.712404 -13.479140 0.213700 0.000000 -45.113800
-13.674675 17.077464 -1.530856 -19.073840 85.493671 12.595884 -11.500968 1.131729 -0.690117 -7.537932 5.375082 -39.944041 0.208057 3.033254 57.823046 3.092880 18.796786 0.377073 2.807900 -0.000000 -36.582200 8.135001 -0.627590 3.487988 9.236068 8.274652 -37.959283 2.821619 0.226170 20.388647 -1.397403 -2.637337 -12.565405 0.130600 -0.000000 -45.410200
-13.421262 17.146142 -1.475652 -9.631177 85.023406 21.994271 -11.535785 1.062299 -0.526291 -8.435004 4.739708 -41.731349 0.082978 3.104411 57.152445 3.151120 18.834348 -0.876521 2.494500 -0.000000 -34.700300 7.995504 -0.633751 3.368762 8.763121 7.923603 -35.367055 2.841772 0.627981 17.384654 -1.304646 -2.590102 -11.664934 0.048301 -0.000000 -45.682100
